# File created by Blade
# Date/Time:  Mon Sep 29 17:58:21 2014
# Frame Rate: 120.000 fps
#------------------------------------------------------
:FULLY-SPECIFIED
:DEGREES
2222
root -0.565986 2.469018 -8.051527 -38.442141 -3.365047 -3.897083
Spine 35.934130 -7.775496 10.593435
Head 4.021179 -11.606085 6.444031
LeftShoulder 4.674726 2.917026 18.122166
LeftArm 43.100024 13.681649 -61.930440
LeftForeArm 2.441089 0.000000 60.123271
LeftHand -16.828808 0.000000 -14.227683
LeftHandThumb1 -26.253704 0.000000 33.147579
RightShoulder -10.655382 5.200524 -27.711253
RightArm -37.578943 -7.939293 90.728386
RightForeArm 16.150438 -0.000000 14.390815
RightHand -11.309366 -0.000000 -52.887172
RightHandThumb1 -24.326973 -0.000000 -32.862282
LeftUpLeg -53.665425 -0.798605 9.129431
LeftLeg 9.208898 -0.000000 -0.000000
LeftFoot 31.592560 6.200533 -8.939833
LeftToeBase 13.935080 -0.000000 -0.000000
RightUpLeg -105.068570 22.482422 39.219653
RightLeg 117.272011 -0.000000 -0.000000
RightFoot 23.754185 -24.761357 16.749478
RightToeBase 6.454600 -0.000000 -0.000000
2223
root -0.556771 2.471294 -8.058205 -38.324072 -3.300835 -3.999581
Spine 36.001270 -7.905730 10.864280
Head 3.796866 -11.964076 6.033561
LeftShoulder 4.521885 3.138077 18.398055
LeftArm 42.587130 14.045555 -61.986588
LeftForeArm 1.954560 -0.000000 61.099351
LeftHand -17.463964 0.000000 -13.266884
LeftHandThumb1 -26.253704 0.000000 33.147579
RightShoulder -10.713912 5.187631 -27.612738
RightArm -37.537948 -7.930520 90.531133
RightForeArm 16.182449 -0.000000 14.380011
RightHand -11.235953 -0.000000 -52.911854
RightHandThumb1 -24.326973 -0.000000 -32.862282
LeftUpLeg -53.803571 -1.138274 9.338209
LeftLeg 9.156387 -0.000000 -0.000000
LeftFoot 31.751099 5.651222 -8.796117
LeftToeBase 14.015029 -0.000000 -0.000000
RightUpLeg -104.903799 22.772779 39.730204
RightLeg 117.864876 -0.000000 -0.000000
RightFoot 22.482319 -24.809590 17.017350
RightToeBase 6.221426 -0.000000 -0.000000
2224
root -0.545439 2.473832 -8.064863 -38.226532 -3.199451 -4.109793
Spine 36.087381 -8.030578 11.141593
Head 3.565390 -12.373477 5.630597
LeftShoulder 4.507492 3.407168 18.690021
LeftArm 42.004007 14.234075 -62.177772
LeftForeArm 1.437958 -0.000000 62.092536
LeftHand -17.663286 0.000000 -13.128370
LeftHandThumb1 -26.253704 0.000000 33.147579
RightShoulder -10.782127 5.280490 -27.536545
RightArm -37.614211 -7.908631 90.369053
RightForeArm 16.267578 0.000000 14.337167
RightHand -11.163618 -0.000000 -52.918116
RightHandThumb1 -24.326973 -0.000000 -32.862282
LeftUpLeg -53.953363 -1.500402 9.502786
LeftLeg 9.181739 -0.000000 -0.000000
LeftFoot 31.790950 5.014926 -8.702040
LeftToeBase 14.035847 -0.000000 -0.000000
RightUpLeg -104.710651 23.029740 40.240295
RightLeg 118.491708 -0.000000 -0.000000
RightFoot 21.443315 -24.645140 16.749354
RightToeBase 5.615773 -0.000000 -0.000000
2225
root -0.541993 2.477368 -8.069888 -38.133178 -3.173515 -4.191063
Spine 36.191198 -8.032418 11.421760
Head 3.364860 -12.847371 5.349331
LeftShoulder 4.465554 3.633041 18.922664
LeftArm 41.440660 14.523748 -62.357927
LeftForeArm 0.719320 0.000000 63.028752
LeftHand -18.148130 -0.000000 -12.320639
LeftHandThumb1 -26.253704 0.000000 33.147579
RightShoulder -10.891438 5.263951 -27.402649
RightArm -37.573091 -7.912357 90.189043
RightForeArm 16.323537 -0.000000 14.268526
RightHand -11.116259 -0.000000 -52.897012
RightHandThumb1 -24.326973 -0.000000 -32.862282
LeftUpLeg -54.082364 -1.866928 9.796057
LeftLeg 9.229584 -0.000000 -0.000000
LeftFoot 31.422673 4.247205 -7.827227
LeftToeBase 15.430735 -0.000000 -0.000000
RightUpLeg -104.440353 23.385942 40.771109
RightLeg 119.104830 -0.000000 -0.000000
RightFoot 20.455127 -24.568962 16.587225
RightToeBase 5.211107 -0.000000 -0.000000
2226
root -0.531265 2.479961 -8.076304 -38.053595 -3.050479 -4.257209
Spine 36.317950 -8.139766 11.578389
Head 3.193568 -13.255618 5.099847
LeftShoulder 4.400800 3.805637 19.113512
LeftArm 40.743223 14.683198 -62.763522
LeftForeArm 0.346101 -0.000000 63.932959
LeftHand -18.479448 0.000000 -12.234300
LeftHandThumb1 -26.253704 0.000000 33.147579
RightShoulder -10.965154 5.321163 -27.301566
RightArm -37.505282 -8.047274 90.133225
RightForeArm 16.516028 -0.000000 14.044298
RightHand -10.980760 0.000000 -52.804885
RightHandThumb1 -24.326973 -0.000000 -32.862282
LeftUpLeg -54.201052 -2.231956 9.946192
LeftLeg 9.218301 -0.000000 -0.000000
LeftFoot 31.452694 3.579633 -7.665667
LeftToeBase 15.563446 -0.000000 -0.000000
RightUpLeg -104.199210 23.660054 41.287825
RightLeg 119.659894 -0.000000 -0.000000
RightFoot 20.100109 -24.624507 16.013809
RightToeBase 4.367319 -0.000000 -0.000000
2227
root -0.520839 2.486660 -8.079082 -38.004445 -2.941434 -4.281165
Spine 36.490798 -8.180718 11.686130
Head 3.030611 -13.673161 4.917331
LeftShoulder 4.322690 4.059046 19.239319
LeftArm 40.140943 14.777398 -63.178689
LeftForeArm 0.050848 0.000000 64.766358
LeftHand -18.734975 -0.000000 -12.149982
LeftHandThumb1 -26.253704 0.000000 33.147579
RightShoulder -11.041125 5.366670 -27.120517
RightArm -37.466338 -8.085621 89.971934
RightForeArm 16.515198 -0.000000 13.936029
RightHand -11.045933 -0.000000 -52.603800
RightHandThumb1 -24.326973 -0.000000 -32.862282
LeftUpLeg -54.268285 -2.499107 9.982971
LeftLeg 9.232955 -0.000000 -0.000000
LeftFoot 31.347532 3.029285 -7.893332
LeftToeBase 15.758655 -0.000000 -0.000000
RightUpLeg -103.905301 23.944811 41.828859
RightLeg 120.265755 -0.000000 -0.000000
RightFoot 19.651381 -24.891672 16.154711
RightToeBase 3.235234 -0.000000 -0.000000
2228
root -0.510641 2.489636 -8.082566 -37.932683 -2.796355 -4.303230
Spine 36.655416 -8.212004 11.756196
Head 2.816863 -14.088273 4.825254
LeftShoulder 4.205962 4.260922 19.338196
LeftArm 39.531867 14.940457 -63.640139
LeftForeArm -0.608871 -0.000000 65.620697
LeftHand -19.367015 -0.000000 -11.533272
LeftHandThumb1 -26.253704 0.000000 33.147579
RightShoulder -11.205731 5.361103 -26.915171
RightArm -37.324021 -8.249261 89.842501
RightForeArm 16.505650 -0.000000 13.719691
RightHand -11.021684 -0.000000 -52.414576
RightHandThumb1 -24.326973 -0.000000 -32.862282
LeftUpLeg -54.366446 -2.757608 9.968854
LeftLeg 9.230243 -0.000000 -0.000000
LeftFoot 31.328852 2.329427 -7.917211
LeftToeBase 15.804553 -0.000000 -0.000000
RightUpLeg -103.645087 24.193094 42.204593
RightLeg 120.943922 -0.000000 -0.000000
RightFoot 19.431408 -24.496847 15.790911
RightToeBase 1.602681 -0.000000 -0.000000
2229
root -0.505032 2.488540 -8.093038 -37.826006 -2.636964 -4.332954
Spine 36.806719 -8.299087 11.733300
Head 2.655613 -14.430983 4.825853
LeftShoulder 3.962676 4.568155 19.409445
LeftArm 39.042045 15.059665 -64.025573
LeftForeArm -0.873107 -0.000000 66.366706
LeftHand -19.542641 -0.000000 -11.449203
LeftHandThumb1 -26.253704 0.000000 33.147579
RightShoulder -11.263747 5.453354 -26.676458
RightArm -37.225134 -8.299961 89.673536
RightForeArm 16.458698 -0.000000 13.527127
RightHand -11.001771 -0.000000 -52.153605
RightHandThumb1 -24.326973 -0.000000 -32.862282
LeftUpLeg -54.562874 -3.002670 9.948131
LeftLeg 9.332481 -0.000000 -0.000000
LeftFoot 31.348950 1.638552 -7.947780
LeftToeBase 15.855041 -0.000000 -0.000000
RightUpLeg -103.347889 24.509665 42.712502
RightLeg 121.531328 -0.000000 -0.000000
RightFoot 19.110262 -24.621634 15.473383
RightToeBase 0.170453 -0.000000 -0.000000
2230
root -0.500861 2.490777 -8.097058 -37.739605 -2.524577 -4.376467
Spine 36.959262 -8.300830 11.814731
Head 2.547384 -14.921471 4.764549
LeftShoulder 3.781515 4.864674 19.393438
LeftArm 38.552078 15.104748 -64.604945
LeftForeArm -0.851547 -0.000000 67.031117
LeftHand -19.780398 0.000000 -11.421076
LeftHandThumb1 -26.253704 0.000000 33.147579
RightShoulder -11.399518 5.517768 -26.460435
RightArm -37.181200 -8.372991 89.499472
RightForeArm 16.448282 0.000000 13.394547
RightHand -11.042472 -0.000000 -51.767443
RightHandThumb1 -24.326973 -0.000000 -32.862282
LeftUpLeg -54.692675 -3.187671 9.944881
LeftLeg 9.364499 -0.000000 -0.000000
LeftFoot 31.314346 1.016825 -7.893831
LeftToeBase 15.993560 -0.000000 -0.000000
RightUpLeg -102.974561 24.797687 43.276199
RightLeg 122.128779 -0.000000 -0.000000
RightFoot 18.958889 -24.302559 14.227391
RightToeBase -0.871904 -0.000000 0.000000
2231
root -0.501303 2.493025 -8.102589 -37.646920 -2.389225 -4.469842
Spine 37.098245 -8.319014 11.905663
Head 2.457399 -15.446572 4.741826
LeftShoulder 3.615253 5.107536 19.378970
LeftArm 38.050477 15.230686 -65.111357
LeftForeArm -0.986690 -0.000000 67.600258
LeftHand -20.217042 -0.000000 -10.821651
LeftHandThumb1 -26.253704 0.000000 33.147579
RightShoulder -11.554743 5.582562 -26.219630
RightArm -37.123327 -8.477677 89.323128
RightForeArm 16.351973 -0.000000 13.201283
RightHand -11.037190 -0.000000 -51.414282
RightHandThumb1 -24.326973 -0.000000 -32.862282
LeftUpLeg -54.832923 -3.298334 9.846921
LeftLeg 9.397741 -0.000000 -0.000000
LeftFoot 31.330574 0.305788 -7.854037
LeftToeBase 16.282912 -0.000000 -0.000000
RightUpLeg -102.629662 25.046359 43.761072
RightLeg 122.738131 -0.000000 -0.000000
RightFoot 18.755311 -23.777829 13.302581
RightToeBase -2.284352 -0.000000 0.000000
